<svg width="63" height="39" viewBox="0 0 63 39" fill="none" xmlns="http://www.w3.org/2000/svg"><path d="M7.87545 18.3679C3.43344 17.7199 0 13.8541 0 9.22004C0 4.12989 4.12973 0 9.24394 0C12.8935 0 16.063 2.11277 17.5515 5.21018H12.6535C11.7171 4.41778 10.5406 3.96172 9.24394 3.96172C6.3147 3.96172 3.96171 6.31487 3.96171 9.22004C3.96171 12.1493 6.3147 14.5024 9.24394 14.5024C11.573 14.5024 13.5418 12.9895 14.2381 10.9008H8.93183V7.46737H18.2958C18.3921 7.89936 18.4399 8.33167 18.464 8.78773V9.22004C18.464 9.4601 18.464 9.6761 18.4399 9.89241C18.4399 10.1084 18.4162 10.3244 18.3921 10.5407L18.3439 10.8286L18.3199 10.9008C17.5515 15.1986 13.758 18.4641 9.24394 18.4641C8.76381 18.4641 8.33167 18.4401 7.87545 18.3679Z" fill="#1F1B1C"></path><path d="M25.5347 4.7301V8.16355C24.1421 8.16355 23.0138 9.29198 23.0138 10.6846V18.1519H19.5801V10.6846C19.5801 7.39521 22.2455 4.7301 25.5347 4.7301Z" fill="#1F1B1C"></path><path d="M45.9927 22.7141H42.031L44.6242 16.7834L39.3418 4.94604H43.3035L46.5691 12.2693L49.7384 4.94604H53.7001L45.9927 22.7141Z" fill="#1F1B1C"></path><path d="M19.3841 32.3896C19.3841 35.5589 16.9591 37.864 13.9818 37.864H5.57812V20.024H12.9974C15.7827 20.024 18.0636 22.1853 18.0636 25.1864C18.0636 26.2429 17.7755 27.2032 17.2712 27.9956C18.5439 28.9803 19.3841 30.5407 19.3841 32.3896ZM9.29978 26.8913H12.9974C13.7416 26.8913 14.366 25.9788 14.366 25.1864C14.366 24.3702 13.7416 23.4578 12.9974 23.4578H9.29978V26.8913ZM15.6625 32.3896C15.6625 31.4053 14.9182 30.3247 13.9818 30.3247H9.29978V34.4305H13.9818C14.9182 34.4305 15.6625 33.374 15.6625 32.3896Z" fill="#4199F0"></path><path d="M33.8748 31.2853C33.8748 35.0547 30.8252 38.1281 27.0559 38.1281C23.2861 38.1281 20.2129 35.0547 20.2129 31.2853C20.2129 27.5155 23.2861 24.4421 27.0559 24.4421C30.8252 24.4421 33.8748 27.5155 33.8748 31.2853ZM30.4651 31.2853C30.4651 29.4123 28.9284 27.8756 27.0559 27.8756C25.1591 27.8756 23.6465 29.4123 23.6465 31.2853C23.6465 33.158 25.1591 34.6946 27.0559 34.6946C28.9284 34.6946 30.4651 33.158 30.4651 31.2853Z" fill="#4199F0"></path><path d="M48.3175 31.2853C48.3175 35.0547 45.2682 38.1281 41.4984 38.1281C37.7286 38.1281 34.6553 35.0547 34.6553 31.2853C34.6553 27.5155 37.7286 24.4421 41.4984 24.4421C45.2682 24.4421 48.3175 27.5155 48.3175 31.2853ZM44.9078 31.2853C44.9078 29.4123 43.3711 27.8756 41.4984 27.8756C39.6016 27.8756 38.089 29.4123 38.089 31.2853C38.089 33.158 39.6016 34.6946 41.4984 34.6946C43.3711 34.6946 44.9078 33.158 44.9078 31.2853Z" fill="#4199F0"></path><path d="M53.1795 30.3969V37.864H49.7461V20.024H53.1795V30.3006L57.9099 24.5622H61.8716L57.1175 30.3488L63.0001 37.864H59.0383L53.1795 30.3969Z" fill="#4199F0"></path><path d="M32.8353 4.7301C29.0655 4.7301 25.9922 7.80346 25.9922 11.5732C25.9922 15.3427 29.0655 18.416 32.8353 18.416C34.0783 18.416 35.2419 18.0803 36.2447 17.4973V18.4642H39.6544V11.5732C39.6544 7.80346 36.6051 4.7301 32.8353 4.7301ZM32.8353 14.9826C30.9385 14.9826 29.4259 13.4459 29.4259 11.5732C29.4259 9.70022 30.9385 8.16355 32.8353 8.16355C34.708 8.16355 36.2447 9.70022 36.2447 11.5732C36.2447 13.4459 34.708 14.9826 32.8353 14.9826Z" fill="#1F1B1C"></path></svg>